<svg xmlns="http://www.w3.org/2000/svg" enable-background="new 0 0 24 24" viewBox="0 0 24 24" id="dashboard">
  <path fill="#3b65f5" d="M9.9 3H4.6C3.7 3 3 3.7 3 4.6v8.5c0 .9.7 1.6 1.6 1.6h5.3c.9 0 1.6-.7 1.6-1.6V4.6C11.5 3.7 10.8 3 9.9 3zM9.4 12.5H5.1V5.1h4.2V12.5zM9.9 15.7H4.6c-.9 0-1.6.7-1.6 1.6v2.1C3 20.3 3.7 21 4.6 21h5.3c.9 0 1.6-.7 1.6-1.6v-2.1C11.5 16.4 10.8 15.7 9.9 15.7zM9.4 18.9H5.1v-1.1h4.2V18.9zM19.4 9.4h-5.3c-.9 0-1.6.7-1.6 1.6v8.5c0 .9.7 1.6 1.6 1.6h5.3c.9 0 1.6-.7 1.6-1.6v-8.5C21 10.1 20.3 9.4 19.4 9.4zM18.9 18.9h-4.2v-7.4h4.2V18.9zM19.4 3h-5.3c-.9 0-1.6.7-1.6 1.6v2.1c0 .9.7 1.6 1.6 1.6h5.3c.9 0 1.6-.7 1.6-1.6V4.6C21 3.7 20.3 3 19.4 3zM18.9 6.2h-4.2V5.1h4.2V6.2z"></path>
</svg>
